<?xml version="1.0" standalone="no"?>
<!DOCTYPE svg PUBLIC "-//W3C//DTD SVG 20010904//EN"
 "http://www.w3.org/TR/2001/REC-SVG-20010904/DTD/svg10.dtd">
<svg version="1.0" xmlns="http://www.w3.org/2000/svg"
 width="700.000000pt" height="700.000000pt" viewBox="0 0 700.000000 700.000000"
 preserveAspectRatio="xMidYMid meet">
<metadata>
Created by potrace 1.14, written by Peter Selinger 2001-2017
</metadata>
<g transform="translate(0.000000,700.000000) scale(0.100000,-0.100000)"
fill="#000000" stroke="none">
<path d="M736 6953 c9 -27 19 -57 23 -68 13 -32 45 -121 85 -235 21 -58 48
-134 61 -170 13 -36 37 -103 53 -150 39 -110 125 -352 162 -455 15 -44 42
-120 60 -170 17 -49 40 -112 50 -140 10 -27 69 -192 130 -365 61 -173 122
-344 135 -380 13 -36 38 -105 54 -153 l30 -89 -215 -216 c-118 -119 -474 -476
-790 -793 l-574 -576 0 -931 0 -932 28 -24 c36 -32 175 -150 242 -206 52 -44
161 -137 270 -231 30 -26 109 -93 175 -149 66 -56 134 -114 150 -129 17 -14
57 -48 90 -76 33 -27 65 -54 71 -60 14 -13 92 -79 209 -179 l90 -76 2840 0
2839 0 -49 51 c-28 28 -59 61 -70 73 -11 12 -79 85 -151 161 -73 77 -145 154
-160 170 -16 17 -90 95 -164 174 -74 78 -151 160 -170 180 -19 21 -91 97 -160
170 -69 73 -141 150 -160 170 -55 59 -318 338 -391 416 -37 38 -81 86 -99 105
-18 19 -64 69 -104 110 -155 164 -365 387 -396 420 -18 19 -85 91 -150 160
-65 69 -137 145 -160 170 -23 25 -99 105 -168 179 -70 74 -140 149 -157 166
-16 18 -66 70 -110 117 -44 46 -143 151 -220 233 -77 82 -166 176 -197 209
-32 34 -58 63 -58 66 0 5 30 38 244 264 72 77 142 151 156 166 14 15 88 94
166 176 77 82 152 161 165 175 23 25 240 256 304 323 105 112 309 327 340 361
21 22 95 101 165 175 70 74 138 147 151 161 21 23 142 151 339 360 47 49 101
107 310 329 22 24 247 262 340 360 19 21 91 97 160 170 123 131 140 149 244
260 28 30 87 92 130 138 l79 82 -3141 0 -3141 0 15 -47z"/>
</g>
</svg>
